<?xml version="1.0" encoding="UTF-8"?>
<svg enable-background="new 0 0 32.6 32.7" version="1.1" viewBox="0 0 32.6 32.7" xml:space="preserve" xmlns="http://www.w3.org/2000/svg">
<style type="text/css">
	.st0{fill-rule:evenodd;clip-rule:evenodd;fill:#191717;}
</style>
<title>textAsset 2</title>
<path class="st0" d="m0 0v32.7h11.8c0.3-0.1 0.5-0.4 0.5-0.7v-2.8c-4.5 1-5.5-2.2-5.5-2.2-0.3-1-0.9-1.8-1.8-2.4-1.5-1 0.1-1 0.1-1 1 0.1 2 0.8 2.5 1.7 0.9 1.7 3 2.3 4.7 1.4 0.1-0.8 0.4-1.6 1-2.2-3.6-0.4-7.4-1.8-7.4-8 0-1.6 0.6-3.2 1.7-4.4-0.6-1.4-0.5-3 0.1-4.3 0 0 1.4-0.4 4.5 1.7 2.7-0.7 5.5-0.7 8.2 0 3.1-2.1 4.5-1.7 4.5-1.7 0.6 1.4 0.7 2.9 0.2 4.3 1.1 1.2 1.7 2.8 1.7 4.4 0 6.3-3.8 7.6-7.4 8 0.8 0.8 1.2 1.9 1.1 3v4.5c0 0.4 0.2 0.7 0.6 0.8h11.8v-32.8h-32.9z"/>
</svg>
