<?xml version="1.0" encoding="UTF-8"?>
<svg enable-background="new 0 0 24 24" version="1.1" viewBox="0 0 24 24" xml:space="preserve" xmlns="http://www.w3.org/2000/svg">
<style type="text/css">
	.st0{fill:#D51A6F;}
</style>
<path class="st0" d="m14.7 12c0 1.5-1.2 2.7-2.7 2.7s-2.7-1.2-2.7-2.7 1.2-2.7 2.7-2.7 2.7 1.2 2.7 2.7zm3.8-3.2v3.2s0 2.4 0 3.2c-0.1 2.1-1.1 3.2-3.3 3.3h-3.2-3.2c-2.2-0.1-3.2-1.1-3.3-3.3v-3.2s0-2.4 0-3.2c0.1-2.2 1.1-3.2 3.3-3.3h3.2s2.4 0 3.2 0c2.2 0.1 3.2 1.1 3.3 3.3zm-2.4 3.2c0-2.3-1.8-4.1-4.1-4.1s-4.1 1.8-4.1 4.1 1.8 4.1 4.1 4.1 4.1-1.8 4.1-4.1zm1.1-4.3c0-0.5-0.4-1-1-1s-1 0.4-1 1 0.4 1 1 1 1-0.4 1-1zm6.8-7.7v24h-24v-24h24zm-4 12v-3.3c-0.1-2.9-1.7-4.5-4.7-4.7h-3.3s-2.4 0-3.3 0c-2.9 0.2-4.5 1.8-4.7 4.7v3.3 3.3c0.1 2.9 1.7 4.5 4.7 4.7h3.3s2.4 0 3.3 0c2.9-0.1 4.5-1.7 4.7-4.7v-3.3z"/>
</svg>
