<?xml version="1.0" encoding="utf-8"?>
<!-- Generator: Adobe Illustrator 23.0.1, SVG Export Plug-In . SVG Version: 6.00 Build 0)  -->
<svg version="1.1" id="Layer_1" xmlns="http://www.w3.org/2000/svg" xmlns:xlink="http://www.w3.org/1999/xlink" x="0px" y="0px"
	 viewBox="0 0 24 24" style="enable-background:new 0 0 24 24;" xml:space="preserve">
<style type="text/css">
	.st0{fill:#D51A6F;}
</style>
<path class="st0" d="M14.7,12c0,1.5-1.2,2.7-2.7,2.7S9.3,13.5,9.3,12c0-1.5,1.2-2.7,2.7-2.7S14.7,10.5,14.7,12z M18.5,8.8
	c0,0.8,0,1.1,0,3.2s0,2.4,0,3.2c-0.1,2.1-1.1,3.2-3.3,3.3c-0.8,0-1.1,0-3.2,0c-2.1,0-2.4,0-3.2,0c-2.2-0.1-3.2-1.1-3.3-3.3
	c0-0.8,0-1.1,0-3.2s0-2.4,0-3.2c0.1-2.2,1.1-3.2,3.3-3.3c0.8,0,1.1,0,3.2,0s2.4,0,3.2,0C17.4,5.6,18.4,6.6,18.5,8.8z M16.1,12
	c0-2.3-1.8-4.1-4.1-4.1c-2.3,0-4.1,1.8-4.1,4.1s1.8,4.1,4.1,4.1C14.3,16.1,16.1,14.3,16.1,12z M17.2,7.7c0-0.5-0.4-1-1-1s-1,0.4-1,1
	s0.4,1,1,1C16.8,8.7,17.2,8.3,17.2,7.7z M24,0v24H0V0H24z M20,12c0-2.2,0-2.4,0-3.3c-0.1-2.9-1.7-4.5-4.7-4.7c-0.9,0-1.1,0-3.3,0
	S9.6,4,8.7,4C5.8,4.2,4.2,5.8,4,8.7C4,9.6,4,9.8,4,12c0,2.2,0,2.4,0,3.3c0.1,2.9,1.7,4.5,4.7,4.7c0.9,0,1.1,0,3.3,0s2.4,0,3.3,0
	c2.9-0.1,4.5-1.7,4.7-4.7C20,14.4,20,14.2,20,12z"/>
</svg>
