<?xml version="1.0" encoding="UTF-8" standalone="no"?>
<!-- Generator: Adobe Illustrator 23.0.1, SVG Export Plug-In . SVG Version: 6.00 Build 0)  -->

<svg
   xmlns:dc="http://purl.org/dc/elements/1.1/"
   xmlns:cc="http://creativecommons.org/ns#"
   xmlns:rdf="http://www.w3.org/1999/02/22-rdf-syntax-ns#"
   xmlns:svg="http://www.w3.org/2000/svg"
   xmlns="http://www.w3.org/2000/svg"
   xmlns:sodipodi="http://sodipodi.sourceforge.net/DTD/sodipodi-0.dtd"
   xmlns:inkscape="http://www.inkscape.org/namespaces/inkscape"
   version="1.1"
   id="Layer_1"
   x="0px"
   y="0px"
   viewBox="0 0 60 60"
   xml:space="preserve"
   sodipodi:docname="linkedin-square.svg"
   width="60"
   height="60"
   inkscape:version="0.92.4 (5da689c313, 2019-01-14)"><metadata
   id="metadata11"><rdf:RDF><cc:Work
       rdf:about=""><dc:format>image/svg+xml</dc:format><dc:type
         rdf:resource="http://purl.org/dc/dcmitype/StillImage" /></cc:Work></rdf:RDF></metadata><defs
   id="defs9" /><sodipodi:namedview
   pagecolor="#ffffff"
   bordercolor="#666666"
   borderopacity="1"
   objecttolerance="10"
   gridtolerance="10"
   guidetolerance="10"
   inkscape:pageopacity="0"
   inkscape:pageshadow="2"
   inkscape:window-width="1920"
   inkscape:window-height="1017"
   id="namedview7"
   showgrid="false"
   inkscape:zoom="3.5223881"
   inkscape:cx="30.5"
   inkscape:cy="30.5"
   inkscape:window-x="-8"
   inkscape:window-y="-8"
   inkscape:window-maximized="1"
   inkscape:current-layer="Layer_1" />
<style
   type="text/css"
   id="style2">
	.st0{fill-rule:evenodd;clip-rule:evenodd;fill:#1686B0;}
</style>
<path
   class="st0"
   d="M 46.8,44.1 V 32.4 c 0,-6.3 -3.3,-9.2 -7.8,-9.2 -3.6,0 -5.2,2 -6.1,3.4 v -2.9 h -6.8 c 0.1,1.9 0,20.4 0,20.4 h 6.8 V 32.7 c 0,-0.6 0,-1.2 0.2,-1.7 0.5,-1.2 1.6,-2.5 3.5,-2.5 2.5,0 3.4,1.9 3.4,4.6 V 44 Z M 19,20.9 c 2.4,0 3.8,-1.6 3.8,-3.5 0,-2 -1.5,-3.5 -3.8,-3.5 -2.3,0 -3.8,1.5 -3.8,3.5 0,2 1.4,3.5 3.8,3.5 z m 3.4,23.2 V 23.7 H 15.6 V 44.1 Z M 0,0 H 60 V 60 H 0 Z"
   id="path4"
   inkscape:connector-curvature="0"
   style="clip-rule:evenodd;fill:#1686b0;fill-rule:evenodd" />
</svg>