<?xml version="1.0" encoding="UTF-8"?>
<svg version="1.1" viewBox="0 0 60 60" xml:space="preserve" xmlns="http://www.w3.org/2000/svg" xmlns:cc="http://creativecommons.org/ns#" xmlns:dc="http://purl.org/dc/elements/1.1/" xmlns:rdf="http://www.w3.org/1999/02/22-rdf-syntax-ns#"><metadata><rdf:RDF><cc:Work rdf:about=""><dc:format>image/svg+xml</dc:format><dc:type rdf:resource="http://purl.org/dc/dcmitype/StillImage"/></cc:Work></rdf:RDF></metadata>
<style type="text/css">
	.st0{fill-rule:evenodd;clip-rule:evenodd;fill:#1686B0;}
</style>
<path class="st0" d="m46.8 44.1v-11.7c0-6.3-3.3-9.2-7.8-9.2-3.6 0-5.2 2-6.1 3.4v-2.9h-6.8c0.1 1.9 0 20.4 0 20.4h6.8v-11.4c0-0.6 0-1.2 0.2-1.7 0.5-1.2 1.6-2.5 3.5-2.5 2.5 0 3.4 1.9 3.4 4.6v10.9zm-27.8-23.2c2.4 0 3.8-1.6 3.8-3.5 0-2-1.5-3.5-3.8-3.5s-3.8 1.5-3.8 3.5 1.4 3.5 3.8 3.5zm3.4 23.2v-20.4h-6.8v20.4zm-22.4-44.1h60v60h-60z" clip-rule="evenodd" fill="#1686b0" fill-rule="evenodd"/>
</svg>
