<?xml version="1.0" encoding="UTF-8"?>
<svg enable-background="new 0 0 512 512" version="1.1" viewBox="0 0 384 512" xml:space="preserve" xmlns="http://www.w3.org/2000/svg">
<path d="m192 0c-106.03 0-192 85.969-192 192 0 43.188 14.25 83 38.313 115.09l153.69 204.91 153.69-204.91c24.062-32.094 38.312-71.906 38.312-115.09 0-106.03-85.969-192-192-192zm0 320c-70.688 0-128-57.313-128-128s57.313-128 128-128 128 57.313 128 128-57.312 128-128 128z"/>
<g transform="matrix(2.4192 0 0 2.4192 100.86 102.2)" clip-rule="evenodd" fill-rule="evenodd" stroke-linejoin="round" stroke-miterlimit="1.4142"><g transform="translate(-37.6,-37.5)" fill-rule="nonzero">
        <path d="m51 75.2-1.4-1.4c-4.5-4.5-5.8-10.8-4.2-16.5-4.5-1-7.8-5-7.8-9.8 0-5.5 4.5-10 10-10 5 0 9.1 3.6 9.9 8.4 5.4-1.3 11.3 0.2 15.5 4.4l0.6 0.6-7.4 7.4-0.6-0.6c-2.4-2.4-6.3-2.4-8.7 0s-2.4 6.3 0 8.7l16.6 16.6-7.4 7.4-7.8-7.8z" fill="#7ac143"/>
        <path d="m59.3 67 16.6-16.6c4.4-4.4 10.8-5.8 16.4-4.2 0.7-4.9 4.9-8.6 9.9-8.6 5.5 0 10 4.5 10 10 0 5.1-3.8 9.3-8.7 9.9 1.6 5.6 0.2 11.9-4.2 16.3l-0.6 0.6-7.2-7.4 0.6-0.6c2.4-2.4 2.4-6.3 0-8.7s-6.3-2.4-8.7 0l-16.6 16.6z" fill="#f9a541"/>
        <path d="m92.6 104.3c-5.7 1.7-12.1 0.4-16.6-4.1l-0.6-0.6 7.4-7.4 0.6 0.6c2.4 2.4 6.3 2.4 8.7 0s2.4-6.3 0-8.7l-16.6-16.6 7.4-7.4 16.7 16.7c4.2 4.2 5.7 10.2 4.4 15.7 4.9 0.7 8.6 4.9 8.6 9.9 0 5.5-4.5 10-10 10-5-0.1-9.1-3.6-10-8.1z" fill="#f44321"/>
        <path d="m89.7 83.5-16.6 16.6c-4.3 4.3-10.3 5.7-15.7 4.4-1 4.5-5 7.8-9.8 7.8-5.5 0-10-4.5-10-10 0-4.7 3.3-8.7 7.7-9.7-1.4-5.6 0-11.6 4.3-15.9l0.6-0.6 7.4 7.4-0.6 0.6c-2.4 2.4-2.4 6.3 0 8.7s6.3 2.4 8.7 0l16.6-16.6z" fill="#5091cd"/>
    </g></g></svg>
