<?xml version="1.0" encoding="utf-8"?>
<!-- Generator: Adobe Illustrator 23.0.1, SVG Export Plug-In . SVG Version: 6.00 Build 0)  -->
<svg version="1.1" id="Layer_1" xmlns="http://www.w3.org/2000/svg" xmlns:xlink="http://www.w3.org/1999/xlink" x="0px" y="0px"
	 viewBox="0 0 24 24" style="enable-background:new 0 0 24 24;" xml:space="preserve">
<style type="text/css">
	.st0{fill:#1CB7EB;}
</style>
<path class="st0" d="M0,0v24h24V0H0z M18.9,9.2c0.2,4.6-3.2,9.8-9.3,9.8c-1.9,0-3.6-0.5-5-1.5c1.7,0.2,3.5-0.3,4.9-1.4
	c-1.4,0-2.6-1-3.1-2.3c0.5,0.1,1,0.1,1.5-0.1c-1.6-0.3-2.7-1.7-2.6-3.3C5.6,10.8,6.1,11,6.6,11c-1.5-1-1.9-2.9-1-4.4
	c1.6,2,4,3.3,6.8,3.4c-0.5-2.1,1.1-4,3.2-4c0.9,0,1.8,0.4,2.4,1c0.7-0.1,1.5-0.4,2.1-0.8c-0.2,0.8-0.8,1.4-1.4,1.8
	c0.7-0.1,1.3-0.3,1.9-0.5C20.1,8.2,19.5,8.8,18.9,9.2z"/>
</svg>
